<svg width="77.945" height="77.945" xmlns="http://www.w3.org/2000/svg">

 <g>
  <title>background</title>
  <rect fill="none" id="canvas_background" height="402" width="582" y="-1" x="-1"/>
 </g>
 <g>
  <title>Layer 1</title>
  <path id="svg_6" fill="#ffffff" d="m0,38.973c0.001,-21.525 17.448,-38.973 38.972,-38.973l0,0c21.523,0 38.973,17.448 38.973,38.974l0,0c0,21.522 -17.447,38.971 -38.973,38.973l0,0c-21.524,-0.004 -38.971,-17.451 -38.972,-38.974l0,0zm12.131,-26.842c-6.869,6.871 -11.118,16.357 -11.118,26.842l0,0c0,10.483 4.249,19.971 11.117,26.842l0,0c6.871,6.869 16.356,11.117 26.842,11.117l0,0c10.484,0 19.971,-4.248 26.842,-11.117l0,0c6.871,-6.871 11.117,-16.357 11.117,-26.842l0,0c0,-10.483 -4.246,-19.972 -11.117,-26.843l0,0c-6.873,-6.87 -16.357,-11.116 -26.842,-11.116l0,0c-10.485,0 -19.97,4.246 -26.841,11.117l0,0z"/>
  <polygon fill="#ffffff" id="svg_9" points="38.231,61.238 38.231,16.706 39.431,16.706 39.431,61.238 38.231,61.238     "/>
  <polygon fill="#ffffff" id="svg_11" points="16.847,38.444 16.847,37.244 61.096,37.244 61.096,38.444 16.847,38.444     "/>
 </g>
</svg>